<svg xmlns="http://www.w3.org/2000/svg" width="248" height="48" viewBox="0 0 248 48" fill="none"><path d="M238.943 35.963c-5.247 0-9.057-3.676-9.057-8.69s3.81-8.69 9.057-8.69c5.281 0 9.057 3.676 9.057 8.69s-3.777 8.69-9.057 8.69zm0-3.543c2.941 0 4.913-2.106 4.913-5.147s-1.972-5.147-4.913-5.147c-2.908 0-4.913 2.106-4.913 5.147s2.005 5.147 4.913 5.147zm-16.379 3.275V18.851h4.111v16.844zm2.039-19.251c-1.404 0-2.54-1.103-2.54-2.507s1.136-2.473 2.54-2.473 2.54 1.07 2.54 2.473-1.137 2.507-2.54 2.507zm-15.509 19.519c-5.214 0-8.255-3.543-8.255-8.69s3.042-8.69 8.222-8.69c2.206 0 4.111.902 5.114 2.306v-9.258h4.111v24.064h-4.111V33.59c-1.003 1.504-2.974 2.373-5.08 2.373zm.568-3.543c2.908 0 4.813-2.039 4.813-5.147s-1.905-5.147-4.813-5.147c-2.84 0-4.712 2.072-4.712 5.147s1.872 5.147 4.712 5.147zm-12.096-13.569v16.844h-4.11v-.802c0-.735-.502-.802-.936-.435-1.137.936-2.54 1.504-4.311 1.504-3.777 0-6.25-2.741-6.25-6.684V18.851h4.077v9.559c0 2.306 1.437 3.91 3.543 3.91 2.273 0 3.877-1.805 3.877-4.278v-9.191zm-21.07 16.844c-3.677 0-6.083-2.139-6.083-5.882v-7.52h-3.308v-3.442h2.239c.635 0 1.069-.301 1.069-1.103v-3.977h4.111v5.08h4.679v3.442h-4.679v7.353c0 1.704.902 2.573 2.44 2.573h2.239v3.476zm-19.51.268c-5.314 0-8.79-3.208-9.024-8.121h4.244c.234 2.607 1.972 4.278 4.779 4.278 2.506 0 4.244-1.003 4.244-3.075 0-5.013-12.566-1.537-12.566-10.494 0-3.844 3.309-6.517 8.055-6.517 4.946 0 8.289 2.841 8.489 7.219h-4.211c-.201-2.039-1.805-3.409-4.278-3.409-2.306 0-3.743 1.07-3.743 2.707 0 5.18 12.733 1.303 12.733 10.428 0 4.345-3.576 6.985-8.723 6.985zm-25.114 0c-4.111 0-6.885-2.273-7.085-5.882h3.743c.2 1.604 1.504 2.607 3.342 2.607 1.638 0 2.707-.802 2.707-1.805 0-3.743-9.324-.167-9.324-7.286 0-2.941 2.607-5.013 6.116-5.013 4.044 0 6.751 2.206 6.885 5.448h-3.777c-.2-1.537-1.638-2.373-3.008-2.373-1.504 0-2.506.668-2.506 1.805 0 3.643 9.492-.368 9.492 7.252 0 3.175-2.64 5.247-6.584 5.247zm-25.89-.268V18.851h4.11v.802c0 .702.468.802.969.434 1.17-.936 2.64-1.504 4.411-1.504 3.877 0 6.417 2.741 6.417 6.684v10.428h-4.111v-9.559c0-2.306-1.471-3.91-3.643-3.91-2.373 0-4.044 1.805-4.044 4.278v9.191zm-11.502.268c-5.615 0-8.823-4.345-8.823-8.756 0-4.445 2.874-8.623 8.489-8.623 5.749 0 8.389 4.111 8.389 8.121 0 .668-.034 1.103-.067 1.404H90.904c-.768 0-1.17.535-.835 1.471.468 1.671 2.206 2.975 4.411 2.975s3.676-.869 4.111-2.473h4.044c-.635 3.576-3.877 5.882-8.155 5.882zm3.977-10.561c-.201-2.139-1.738-3.743-4.311-3.743-2.407 0-3.977 1.237-4.412 3.743zM69.434 35.695V12.3h4.412v19.552h10.929v3.843z" fill="#1a1a1a"/><path d="M26.54 4.946L36.188.119c.556-.278 1.232-.053 1.511.504a1.13 1.13 0 0 1 .119.504v16.458l-11.277 6.094V4.946z" fill="url(#A)"/><use href="#R" fill="url(#B)"/><use href="#R" fill="url(#C)"/><path d="M8.414 22.437l18.043 1.242-11.277 6.094-14.144-1.15c-.619-.05-1.081-.594-1.032-1.215a1.13 1.13 0 0 1 .603-.909l7.806-4.062z" fill="url(#D)"/><path opacity=".2" d="M8.497 22.444l18.043 1.242v18.732l-15.973-1.298c-1.169-.096-2.07-1.072-2.07-2.246V22.445z" fill="url(#E)"/><path d="M10.762 4.07l15.778.882v18.732L8.384 22.443V6.32c0-1.245 1.009-2.253 2.252-2.253l.126.003z" fill="url(#F)"/><path d="M26.54 23.684L44.244 24.7v16.314c0 1.245-1.009 2.253-2.252 2.253a2.6 2.6 0 0 1-.157-.005L26.54 42.19z" fill="url(#G)"/><path d="M66.625 105.51l43.461-43.129-43.461 1.206z" fill="url(#H)" opacity=".5" transform="matrix(.39962 0 0 .39962 -.017464 -.018927)"/><path d="M15.263 29.772l11.277-6.094v18.506L17.945 47a1.8 1.8 0 0 1-2.683-1.574V29.771z" fill="url(#I)"/><use href="#S" fill="url(#J)"/><use href="#S" fill="url(#K)"/><path opacity=".1" d="M15.263 29.772l11.277-6.094v18.732l-8.619 4.658a1.8 1.8 0 0 1-2.442-.729c-.142-.263-.216-.558-.216-.857z" fill="#dcc325"/><path d="M38.408 74.564l68.038-12.611-39.989-2.654z" fill="url(#L)" opacity=".44" transform="matrix(.39962 0 0 .39962 -.017464 -.018927)"/><path d="M37.817 17.585l12.967.618c.621.029 1.101.558 1.072 1.179a1.13 1.13 0 0 1-.529.903l-7.081 4.409-17.704-1.016 11.277-6.094z" fill="url(#M)"/><path d="M26.54 4.953l15.581.893c1.192.068 2.123 1.055 2.123 2.25V24.7L26.54 23.685z" fill="#f8ec22"/><path d="M26.607 5.356l12.782 20.515-14.646-2.194V5.356z" fill="url(#N)"/><use href="#T" fill="url(#O)"/><use href="#T" fill="url(#P)"/><path opacity=".29" d="M8.751 22.663l17.704 1.016-11.277 6.094-13.719-.962c-.62-.043-1.088-.582-1.045-1.203.027-.391.256-.74.604-.92l7.732-4.024z" fill="url(#Q)"/><defs><linearGradient id="A" x1="38.335" y1="5.811" x2="27.271" y2="7.825" href="#U"><stop stop-color="#d8be27"/><stop offset="1" stop-color="#f9d606"/></linearGradient><linearGradient id="B" x1="9.582" y1="42.03" x2="19.102" y2="32.686" href="#U"><stop stop-color="#f8ec22"/><stop offset="1" stop-color="#e2cd20"/></linearGradient><linearGradient id="C" x1="11.589" y1="25.595" x2="15.31" y2="29.134" href="#U"><stop stop-color="#f5eb1e"/><stop offset="1" stop-color="#f5eb1e" stop-opacity="0"/></linearGradient><linearGradient id="D" x1="14.852" y1="22.233" x2="14.624" y2="28.719" href="#U"><stop stop-color="#ccb02d"/><stop offset="1" stop-color="#f2ce14"/></linearGradient><linearGradient id="E" x1="8.682" y1="39.826" x2="19.396" y2="32.312" href="#U"><stop stop-color="#f7ec25"/><stop offset="1" stop-color="#e9d918"/></linearGradient><linearGradient id="F" x1="9.582" y1="4.889" x2="27.143" y2="21.259" href="#U"><stop stop-color="#f4eb25"/><stop offset="1" stop-color="#f7ec1e"/></linearGradient><linearGradient id="G" x1="26.23" y1="26.179" x2="45.219" y2="40.093" href="#U"><stop stop-color="#ecd417"/><stop offset="1" stop-color="#fae500"/></linearGradient><linearGradient id="H" x1="74.208" y1="65.246" x2="114.214" y2="120.224" href="#U"><stop stop-color="#dcc225"/><stop offset="1" stop-color="#f8ec26" stop-opacity="0"/></linearGradient><linearGradient id="I" x1="26.162" y1="34.215" x2="20.542" y2="34.499" href="#U"><stop stop-color="#c0aa30"/><stop offset="1" stop-color="#d3c029"/></linearGradient><linearGradient id="J" x1="29.116" y1="23.4" x2="29.233" y2="30.59" href="#U"><stop stop-color="#d5c029"/><stop offset="1" stop-color="#fee000"/></linearGradient><linearGradient id="K" x1="15.263" y1="27.277" x2="44.245" y2="27.277" href="#U"><stop stop-color="#d8be27"/><stop offset="1" stop-color="#f9d606"/></linearGradient><linearGradient id="L" x1="73.608" y1="70.855" x2="73.408" y2="49.679" href="#U"><stop stop-color="#fdc010" stop-opacity=".6"/><stop offset="1" stop-color="#e5c520"/></linearGradient><linearGradient id="M" x1="52.65" y1="18.49" x2="49.184" y2="26.116" href="#U"><stop stop-color="#d8be27"/><stop offset="1" stop-color="#f9d606"/></linearGradient><linearGradient id="N" x1="25.025" y1="11.051" x2="35.89" y2="21.93" href="#U"><stop stop-color="#fdeb07"/><stop offset="1" stop-color="#f8ec26" stop-opacity="0"/></linearGradient><linearGradient id="O" x1="15.529" y1="11.303" x2="28.52" y2="14.645" href="#U"><stop stop-color="#fee000"/><stop offset="1" stop-color="#f8d40a"/></linearGradient><linearGradient id="P" x1="23.449" y1="10.011" x2="8.377" y2="18.919" href="#U"><stop stop-color="#fee000" stop-opacity="0"/><stop offset="1" stop-color="#fee000"/></linearGradient><linearGradient id="Q" x1="15.779" y1="22.577" x2="15.325" y2="29.182" href="#U"><stop stop-color="#d5c029"/><stop offset="1" stop-color="#fee000"/></linearGradient><path id="R" d="M8.384 22.444l18.155 1.242v18.506l-16.085-1.299c-1.169-.095-2.071-1.073-2.071-2.246V22.445z"/><path id="S" d="M26.54 23.678l17.704 1.016-8.181 5.094a7.2 7.2 0 0 1-4.282 1.072l-16.52-1.089 11.277-6.094z"/><path id="T" d="M17.256 9.592l9.285-4.646v18.732l-11.277 6.094V12.817c0-1.366.771-2.615 1.992-3.225z"/><linearGradient id="U" gradientUnits="userSpaceOnUse"/></defs></svg>