<svg width="117" height="32" viewBox="0 0 117 32" fill="none" xmlns="http://www.w3.org/2000/svg">
<g clip-path="url(#clip0_60_5)">
<path fill-rule="evenodd" clip-rule="evenodd" d="M0.342537 24.7643C0.324137 22.8982 0.165111 20.741 0.00345685 19.0915C-0.0140314 18.9175 0.035284 18.7433 0.141204 18.605C0.247124 18.4667 0.401546 18.3749 0.572533 18.3485L0.598819 18.3445C0.765136 18.3185 0.935075 18.3558 1.07584 18.449C1.21661 18.5423 1.31823 18.685 1.36109 18.8496C1.55941 19.6803 1.88868 20.4733 2.33628 21.1982C2.74107 21.8415 4.15785 24.0625 7.13334 24.0625C9.30188 24.0625 10.8921 22.5127 10.8921 20.5536C10.8921 18.7432 9.44645 18.0122 6.61421 16.9303C5.77702 16.5794 4.90961 16.259 4.07111 15.8789C2.91455 15.322 0.196654 14.0367 0.196654 10.4692C0.196654 6.49636 3.34826 4.15704 7.36597 4.15704C8.34115 4.15704 9.72901 4.29527 11.1195 4.94124C11.427 5.08346 11.7898 4.97314 11.9711 4.68605L12.2011 4.3192C12.2605 4.22401 12.3422 4.1451 12.439 4.08946C12.5357 4.03382 12.6445 4.00316 12.7558 4.0002C12.9306 3.99595 13.1004 4.05979 13.23 4.17853C13.3596 4.29726 13.4392 4.46182 13.4523 4.6382C13.58 6.30232 13.7633 7.96162 14.0017 9.61324C14.0386 9.7043 14.0557 9.80229 14.052 9.90062C14.0483 9.99895 14.0238 10.0953 13.9801 10.1833C13.9364 10.2712 13.8746 10.3487 13.7989 10.4104C13.7231 10.4721 13.6351 10.5167 13.5409 10.5412C13.4467 10.5656 13.3483 10.5694 13.2525 10.5521C13.1567 10.5349 13.0657 10.4971 12.9856 10.4413C12.9054 10.3855 12.8381 10.3129 12.788 10.2286C12.7379 10.1442 12.7063 10.0499 12.6953 9.95218C12.3326 8.98322 12.1275 8.52998 11.7293 7.92654C10.7765 6.612 9.50428 5.70684 7.91533 5.70684C5.86245 5.70684 4.64938 7.40019 4.64938 8.77454C4.64938 10.3523 6.03593 11.0248 6.64312 11.3172C7.88642 11.9313 9.18622 12.3407 10.4873 12.867C12.5678 13.6858 15.429 14.9432 15.429 18.8017C15.429 22.6005 12.4233 25.7865 7.65511 25.7865C5.28549 25.7865 3.74123 25.0288 2.8449 24.4533C2.76886 24.405 2.68406 24.3724 2.59544 24.3576C2.50682 24.3428 2.41617 24.346 2.32879 24.367C2.24141 24.3881 2.15906 24.4265 2.08655 24.4801C2.01405 24.5338 1.95284 24.6014 1.90651 24.6793L1.65023 25.1073C1.59401 25.2001 1.51681 25.2782 1.42496 25.335C1.33312 25.3919 1.22925 25.4259 1.1219 25.4342L1.07327 25.4382C0.980796 25.4459 0.887752 25.4342 0.799938 25.4039C0.712124 25.3736 0.631421 25.3254 0.562862 25.2621C0.494303 25.1989 0.439358 25.1221 0.401451 25.0364C0.363545 24.9508 0.34349 24.8582 0.342537 24.7643ZM16.0638 24.5969C16.0638 24.3058 16.2701 24.0586 16.5514 24.0107C16.9877 23.9376 17.516 23.7475 17.5962 23.1866C17.6829 22.5127 17.6829 20.7596 17.6829 20.321C17.6829 19.2975 17.654 17.6321 17.654 16.6086C17.654 15.1412 17.1678 14.7385 16.4843 14.5431C16.3626 14.5071 16.2557 14.4319 16.1798 14.3291C16.104 14.2262 16.0632 14.1012 16.0638 13.9729V13.9038C16.0638 13.6127 16.2714 13.3681 16.554 13.3189C17.9931 13.0637 20.1695 12.4417 21.3116 12.0429C21.3852 12.0172 21.4631 12.0065 21.5408 12.0115C21.6185 12.0165 21.6945 12.0371 21.7642 12.0721C21.8339 12.1071 21.8961 12.1559 21.947 12.2154C21.9979 12.275 22.0366 12.3442 22.0608 12.4191C22.0844 12.4962 22.1068 12.5693 22.1265 12.6451C22.1513 12.7327 22.1957 12.8134 22.2563 12.8808C22.3169 12.9483 22.392 13.0008 22.4759 13.0342C22.5598 13.0676 22.6501 13.0811 22.7399 13.0735C22.8297 13.066 22.9166 13.0376 22.9939 12.9906C24.0847 12.35 25.1191 11.8741 26.6423 11.8741C27.741 11.8741 28.8397 12.1666 29.7361 12.8085C31.1436 13.7974 31.3789 15.3074 31.4972 16.9063V19.473C31.4972 19.9116 31.4407 22.1911 31.4407 22.6895C31.4407 23.4285 31.6391 23.8791 32.5946 24.0586C32.727 24.0861 32.8457 24.1594 32.9304 24.2659C33.0151 24.3724 33.0604 24.5054 33.0585 24.6421C33.0587 24.7233 33.0424 24.8036 33.0106 24.8782C32.9787 24.9527 32.9321 25.0199 32.8736 25.0755C32.8151 25.1311 32.7459 25.1739 32.6703 25.2013C32.5947 25.2287 32.5144 25.2401 32.4342 25.2349C31.6155 25.179 30.3787 25.1432 28.3469 25.1432C27.2008 25.1432 26.5687 25.1751 25.9812 25.2269C25.9 25.2343 25.8181 25.2245 25.7408 25.1981C25.6636 25.1717 25.5926 25.1294 25.5324 25.0737C25.4721 25.0181 25.4241 24.9504 25.3911 24.8749C25.3582 24.7995 25.3412 24.7179 25.3412 24.6354V24.5105C25.3412 24.2433 25.5186 24.0067 25.7749 23.9389C26.6199 23.7077 26.7251 23.2996 26.7001 21.5199L26.6423 16.9595C26.6134 15.5572 26.5555 13.949 24.6761 13.949C23.8942 13.949 23.2883 14.2387 22.7047 14.684C22.6279 14.7411 22.5657 14.8161 22.5236 14.9026C22.4815 14.9891 22.4607 15.0847 22.4629 15.1811C22.5089 16.6458 22.5089 20.8034 22.5089 22.1034C22.5089 23.4445 22.7389 23.8153 23.4447 24.0041C23.697 24.0705 23.8679 24.3098 23.8679 24.5743V24.6514C23.868 24.7326 23.8517 24.813 23.8199 24.8877C23.7881 24.9623 23.7415 25.0295 23.683 25.0852C23.6245 25.1409 23.5553 25.1838 23.4797 25.2114C23.4042 25.239 23.3238 25.2506 23.2436 25.2455C22.2618 25.183 21.0001 25.1432 18.6358 25.1432C17.7263 25.1432 17.198 25.1724 16.7051 25.2202C16.6236 25.228 16.5414 25.2185 16.4638 25.1922C16.3862 25.1659 16.3149 25.1235 16.2545 25.0677C16.1941 25.0118 16.1459 24.9438 16.113 24.868C16.0802 24.7922 16.0634 24.7102 16.0638 24.6274V24.5969ZM41.2398 19.7295C41.2393 19.6389 41.2184 19.5497 41.1786 19.4686C41.1388 19.3875 41.0812 19.3167 41.0101 19.2615C40.9391 19.2064 40.8566 19.1684 40.7688 19.1504C40.6811 19.1325 40.5905 19.1351 40.5038 19.1579C39.5286 19.4078 38.2341 19.9834 38.2341 21.5199C38.2341 22.3094 38.6389 23.1853 39.7376 23.1853C40.2975 23.1853 40.6313 23.0138 40.9822 22.7799C41.0618 22.7257 41.127 22.6524 41.1719 22.5666C41.2169 22.4809 41.2402 22.3852 41.2398 22.2881V19.7295ZM47.9189 23.1109C47.9827 23.1626 48.0351 23.2273 48.0728 23.3008C48.1105 23.3743 48.1325 23.4549 48.1376 23.5374C48.1427 23.62 48.1306 23.7028 48.1023 23.7804C48.0739 23.858 48.0298 23.9287 47.9728 23.9881C46.5836 25.4103 45.2063 25.7001 44.4479 25.7001C43.6679 25.6906 42.9102 25.435 42.2807 24.969C42.08 24.8059 41.8999 24.6184 41.7445 24.4108C41.6559 24.292 41.5258 24.2118 41.3807 24.1866C41.2357 24.1614 41.0866 24.1931 40.9638 24.2752C40.1687 24.7976 38.5272 25.728 36.703 25.728C34.0429 25.728 33.4081 23.9163 33.4081 22.8357C33.4081 19.4956 38.4904 18.0986 40.7917 17.6812C40.9258 17.6564 41.0471 17.5848 41.1345 17.479C41.2219 17.3731 41.2698 17.2396 41.2701 17.1017C41.2727 16.1979 41.274 15.1346 41.1531 14.7677C40.8061 13.7443 39.6509 13.7443 39.5063 13.7443C38.5522 13.7443 38.0317 14.3291 37.8582 14.9724C37.7715 15.3526 37.7715 15.7619 37.6847 16.1421C37.4534 17.135 36.6438 17.5151 35.9223 17.5151C35.026 17.5151 34.1875 16.9303 34.1875 15.8497C34.1875 13.6858 38.1474 11.9313 41.7314 11.9313C44.2166 11.9313 46.0369 12.7501 46.0369 15.1771L45.9804 21.6953C45.9515 22.1924 45.9212 23.3302 46.673 23.3302C46.8596 23.3302 47.0357 23.2318 47.2013 23.1016C47.3048 23.0218 47.4316 22.9794 47.5617 22.9811C47.6918 22.9828 47.8175 23.0285 47.9189 23.1109Z" fill="black"/>
<path fill-rule="evenodd" clip-rule="evenodd" d="M56.0534 23.7125C58.1917 23.7125 58.9711 20.702 58.9711 18.7149C58.9711 16.6095 58.1037 13.8036 55.9667 13.8036C54.0295 13.8036 54.0295 15.8213 54.0295 16.4341C54.0295 17.1066 54.0597 20.3803 54.0597 21.1114C54.0597 22.0471 54.0597 23.7125 56.0534 23.7125ZM49.2613 16.785C49.3139 14.552 48.9985 14.0256 48.0128 13.7505C47.8964 13.7155 47.7944 13.6432 47.7223 13.5443C47.6502 13.4455 47.6119 13.3257 47.6132 13.2029V13.0567C47.6127 12.9192 47.6622 12.7865 47.7524 12.6837C47.8426 12.5809 47.9671 12.5154 48.1021 12.4997C50.0538 12.2884 52.1185 11.7501 53.1344 11.471C53.207 11.4507 53.2829 11.4457 53.3575 11.4564C53.432 11.4671 53.5036 11.4932 53.5677 11.5332C53.6319 11.5731 53.6872 11.6259 53.7302 11.6884C53.7732 11.7509 53.8031 11.8216 53.8179 11.8963C53.8481 12.0319 53.8783 12.198 53.9151 12.4067C53.9303 12.497 53.9671 12.5822 54.0224 12.6548C54.0778 12.7274 54.1499 12.7851 54.2324 12.8229C54.3149 12.8607 54.4054 12.8774 54.4958 12.8716C54.5862 12.8658 54.6739 12.8376 54.751 12.7895C55.8852 12.0545 57.0036 11.6703 58.423 11.6703C61.9203 11.6703 64.0875 14.7101 64.0875 17.9254C64.0875 22.3382 60.9951 25.4085 57.3835 25.4085C56.2755 25.4085 55.4686 25.1228 54.91 24.8184C54.8258 24.7716 54.7309 24.7478 54.6348 24.7493C54.5387 24.7508 54.4446 24.7775 54.3618 24.8268C54.279 24.8761 54.2103 24.9464 54.1624 25.0306C54.1145 25.1149 54.089 25.2103 54.0886 25.3075V28.6809C54.0886 29.8121 54.1569 30.684 55.3529 30.8887C55.4784 30.9138 55.5911 30.9827 55.6715 31.0832C55.752 31.1838 55.795 31.3096 55.7932 31.4389C55.7932 31.5137 55.7785 31.5878 55.7498 31.6567C55.7211 31.7256 55.679 31.7881 55.6261 31.8403C55.5732 31.8926 55.5105 31.9336 55.4417 31.961C55.3729 31.9884 55.2994 32.0016 55.2254 31.9998C53.7967 31.9598 52.3676 31.9355 50.9383 31.9267C49.8514 31.9267 49.1483 31.9467 48.223 31.9866C48.1482 31.9901 48.0735 31.9784 48.0033 31.952C47.9332 31.9256 47.869 31.8851 47.8147 31.8329C47.7604 31.7807 47.7172 31.718 47.6875 31.6485C47.6578 31.5789 47.6424 31.504 47.6421 31.4283V31.3552C47.6421 31.0841 47.8288 30.8408 48.0942 30.7956C49.1693 30.6095 49.2613 30.0114 49.2613 29.178C49.2902 28.6225 49.2902 26.8985 49.2902 26.2552L49.2613 16.785ZM79.2134 25.2331C78.0398 25.1454 77.2722 25.1454 74.1982 25.1454C72.5159 25.1454 71.8443 25.1653 70.8599 25.2358C70.6923 25.2439 70.5278 25.187 70.4001 25.0768C70.2724 24.9666 70.1911 24.8113 70.1727 24.6425C70.1542 24.4738 70.2001 24.3043 70.3009 24.1685C70.4018 24.0328 70.55 23.941 70.7154 23.9119C72.3359 23.682 72.4055 23.0905 72.4055 19.3861V10.0913C72.3766 7.87028 72.349 7.19772 72.1453 6.78834C71.9271 6.26997 71.5841 6.14768 70.7009 5.99882C70.5475 5.97302 70.4081 5.89301 70.3075 5.77302C70.2069 5.65304 70.1516 5.50085 70.1515 5.34354C70.1515 4.93416 70.4565 4.6351 70.8271 4.64573C72.4515 4.68959 74.0773 4.71219 75.7004 4.71219C77.3301 4.71219 78.3749 4.6763 79.2712 4.64573C79.445 4.63128 79.6173 4.68723 79.7503 4.80126C79.8833 4.9153 79.966 5.07809 79.9803 5.25382C79.9946 5.42955 79.9392 5.60383 79.8265 5.7383C79.7137 5.87278 79.5528 5.95645 79.379 5.97091C77.6665 6.18756 77.6665 6.71258 77.6665 10.5884L77.6954 19.6493C77.7533 22.7197 77.7822 22.8951 78.1291 23.3616C78.3762 23.6567 78.7639 23.8122 79.358 23.8933C79.5143 23.9163 79.6571 23.9955 79.7604 24.1163C79.8637 24.2371 79.9205 24.3915 79.9205 24.5512C79.9223 24.6441 79.905 24.7364 79.8697 24.8222C79.8344 24.908 79.7818 24.9854 79.7153 25.0496C79.6488 25.1137 79.5699 25.1631 79.4835 25.1947C79.397 25.2263 79.3051 25.2394 79.2134 25.2331ZM80.1308 24.5978C80.1308 24.3067 80.3371 24.0594 80.6184 24.0116C81.0547 23.9385 81.583 23.7484 81.6632 23.1875C81.7499 22.5136 81.7499 20.7605 81.7499 20.3218C81.7499 19.2984 81.721 17.633 81.721 16.6095C81.721 15.1421 81.2347 14.7394 80.5513 14.544C80.4296 14.5079 80.3227 14.4328 80.2468 14.33C80.1709 14.2271 80.1302 14.1021 80.1308 13.9738V13.9047C80.1308 13.6136 80.3371 13.369 80.621 13.3198C82.0601 13.0646 84.2352 12.4426 85.3786 12.0438C85.4522 12.0181 85.5301 12.0074 85.6078 12.0124C85.6855 12.0174 85.7615 12.038 85.8312 12.073C85.9009 12.108 85.9631 12.1567 86.014 12.2163C86.0649 12.2759 86.1036 12.3451 86.1277 12.42C86.1514 12.4971 86.1738 12.5702 86.1935 12.646C86.2183 12.7334 86.2627 12.8139 86.3232 12.8812C86.3837 12.9485 86.4587 13.0009 86.5424 13.0343C86.6261 13.0677 86.7163 13.0812 86.8059 13.0738C86.8956 13.0664 86.9824 13.0382 87.0596 12.9915C88.1504 12.3509 89.1847 11.875 90.7093 11.875C91.8067 11.875 92.9054 12.1675 93.8017 12.8094C95.2106 13.7983 95.4472 15.3083 95.5629 16.9072C95.5655 16.9232 95.5655 16.9391 95.5655 16.9551V19.4738C95.5655 19.9125 95.5077 22.192 95.5077 22.6904C95.5077 23.4294 95.7048 23.88 96.6616 24.0594C96.7939 24.087 96.9127 24.1603 96.9974 24.2668C97.0821 24.3733 97.1274 24.5063 97.1255 24.6429C97.1257 24.7243 97.1093 24.8048 97.0774 24.8794C97.0456 24.9541 96.9988 25.0213 96.9401 25.0769C96.8815 25.1325 96.8121 25.1753 96.7364 25.2026C96.6606 25.2299 96.5802 25.2412 96.4999 25.2358C95.6825 25.1799 94.4444 25.144 92.4139 25.144C91.2665 25.144 90.6357 25.1759 90.0482 25.2278C89.967 25.2352 89.8851 25.2254 89.8078 25.199C89.7306 25.1726 89.6596 25.1303 89.5993 25.0746C89.5391 25.019 89.491 24.9513 89.4581 24.8758C89.4252 24.8004 89.4082 24.7188 89.4082 24.6363V24.5114C89.4082 24.2442 89.5856 24.0076 89.8419 23.9398C90.6869 23.7085 90.7921 23.3005 90.7671 21.5208L90.7093 16.9604C90.679 15.5581 90.6225 13.9499 88.7431 13.9499C87.9612 13.9499 87.354 14.2396 86.7704 14.6849C86.6938 14.7421 86.6319 14.8172 86.5901 14.9037C86.5482 14.9902 86.5276 15.0857 86.5299 15.182C86.5759 16.6467 86.5759 20.8043 86.5759 22.1043C86.5759 23.4454 86.8046 23.8162 87.5117 24.005C87.764 24.0714 87.9349 24.3107 87.9349 24.5752V24.6523C87.935 24.7335 87.9187 24.8139 87.8869 24.8886C87.8551 24.9632 87.8085 25.0304 87.75 25.0861C87.6915 25.1418 87.6223 25.1847 87.5467 25.2123C87.4711 25.2399 87.3908 25.2515 87.3106 25.2464C86.3288 25.1839 85.0671 25.144 82.7028 25.144C81.7933 25.144 81.265 25.1733 80.7721 25.2211C80.6906 25.2289 80.6084 25.2194 80.5308 25.1931C80.4532 25.1668 80.3819 25.1244 80.3215 25.0685C80.2611 25.0127 80.2129 24.9447 80.18 24.8689C80.1472 24.793 80.1304 24.7111 80.1308 24.6283V24.5978ZM110.197 22.0537C110.56 22.3196 110.61 22.8566 110.292 23.1756C108.698 24.776 106.549 25.6824 104.303 25.701C100.169 25.701 97.1347 22.806 97.1347 18.8305C97.1347 14.6517 100.661 11.9628 104.968 11.9628C107.8 11.9628 110.488 13.2188 110.488 15.3242C110.488 16.3171 109.65 17.1651 108.667 17.1651C108.234 17.1651 107.713 16.9604 107.395 16.6387C107.135 16.4048 107.077 16.2586 106.528 15.0025C106.268 14.447 105.689 13.4528 104.794 13.4528C103.117 13.4528 102.655 16.3463 102.655 17.7792C102.655 21.0821 104.505 23.3032 106.528 23.3032C107.603 23.3032 108.493 22.8034 109.282 22.1016C109.407 21.9898 109.565 21.9242 109.732 21.9155C109.898 21.9068 110.062 21.9555 110.197 22.0537ZM114.189 20.4388C115.605 20.4388 116.817 21.5792 116.817 23.0985C116.817 24.5898 115.605 25.7302 114.218 25.7302C113.535 25.7373 112.878 25.4703 112.39 24.9879C111.902 24.5054 111.624 23.847 111.615 23.1569C111.615 21.3453 113.003 20.4388 114.189 20.4388Z" fill="black"/>
</g>
<defs>
<clipPath id="clip0_60_5">
<rect width="117" height="28" fill="white" transform="translate(0 4)"/>
</clipPath>
</defs>
</svg>
