<svg width="969" height="178" viewBox="0 0 969 178" fill="none" xmlns="http://www.w3.org/2000/svg">
<path d="M967.858 90.6888L957.378 80.2085C956.411 79.2416 954.851 79.2416 953.884 80.2085L940.004 94.6501C938.476 90.7824 936.292 86.9458 933.36 83.2653L906.848 51.5749C905.943 50.4832 904.259 50.3896 903.229 51.3877L841.564 115.268C831.458 125.374 814.989 125.374 804.883 115.268C794.777 105.162 794.777 88.6926 804.883 78.5866C812.525 70.9447 823.785 69.0732 833.205 72.9721L809.344 96.9583C808.377 97.9252 808.377 99.4848 809.344 100.452L819.824 110.932C820.791 111.899 822.35 111.899 823.317 110.932L860.778 73.3464C861.745 72.3795 861.745 70.8199 860.778 69.853L855.538 64.6128C837.821 46.8962 809.032 46.8026 791.19 64.3633L791.128 64.3009L735.389 122.192C735.046 122.535 734.671 122.785 734.172 122.785C733.33 122.785 732.644 122.098 732.644 121.256V71.818L757.566 45.4302L757.971 45.0247C762.962 40.0341 765.707 33.4215 765.707 26.3723C765.707 19.323 762.962 12.7105 757.971 7.71986C747.678 -2.57329 730.96 -2.57329 720.667 7.71986C715.676 12.7105 712.931 19.323 712.931 26.3723V64.0202L664.522 115.268C654.073 125.717 636.855 125.374 626.874 114.238C618.546 104.974 618.172 90.8136 625.689 81.0507L627.716 78.7425C637.292 69.042 652.638 68.4494 662.869 77.0582C663.836 77.8692 665.302 77.838 666.207 76.9334L676.718 66.4219C677.716 65.4238 677.654 63.7707 676.593 62.8038C658.689 46.8338 631.085 47.4264 613.899 64.6128C612.651 65.8605 611.497 67.1705 610.405 68.543L563.431 121.818L563.088 122.223C562.807 122.598 562.371 122.816 561.872 122.816C561.029 122.816 560.343 122.13 560.343 121.288V96.9271C560.343 71.7245 539.85 51.2318 514.648 51.2318C502.202 51.2318 490.911 56.2536 482.645 64.3321L426.907 122.192C426.563 122.535 426.189 122.785 425.69 122.785C424.848 122.785 424.162 122.098 424.162 121.256V74.1262H450.207C451.579 74.1262 452.671 73.0345 452.671 71.6621V56.8462C452.671 55.4738 451.579 54.3821 450.207 54.3821H424.162V11.5876C424.162 10.1528 422.914 8.9987 421.479 9.12346L406.663 10.3711C405.385 10.4647 404.418 11.5564 404.418 12.8352V73.6895L364.617 115.299C354.512 125.405 338.042 125.405 327.937 115.299C317.831 105.193 317.831 88.7549 327.937 78.6489H327.968C337.543 69.042 352.796 68.543 362.964 77.0894C363.931 77.9004 365.397 77.8692 366.302 76.9646L376.813 66.4531C377.811 65.455 377.749 63.8019 376.689 62.8349C358.785 46.865 331.18 47.4576 313.994 64.644L313.932 64.7064L264.431 115.268C254.325 125.374 237.856 125.374 227.75 115.268C217.644 105.162 217.644 88.6926 227.75 78.5866C235.392 70.9447 246.652 69.0732 256.072 72.9721L232.21 96.9583C231.243 97.9252 231.243 99.4848 232.21 100.452L242.691 110.932C243.658 111.899 245.217 111.899 246.184 110.932L283.645 73.3464C284.612 72.3795 284.612 70.8199 283.645 69.853L278.405 64.6128C260.594 46.8026 231.618 46.8026 213.807 64.6128C213.776 64.644 213.745 64.7064 213.683 64.7376L188.449 89.2228C184.955 68.7925 167.675 52.8225 146.684 51.3565C133.178 50.4208 120.795 55.3802 111.874 63.9266L83.7395 91.4686C79.4351 72.8474 62.4359 58.8736 42.1927 58.8736C31.0262 58.8736 21.9183 50.1089 21.9183 39.3167C21.9183 28.5245 30.995 19.7597 42.1927 19.7597C52.2363 19.7597 60.5644 26.8401 62.1551 36.104C62.3735 37.3828 63.4964 38.3186 64.8064 38.1938L79.6223 36.9461C81.0259 36.8214 82.0552 35.5425 81.8681 34.1701C79.2792 14.9251 62.4982 0.0467868 42.2239 0.0467868C20.1716 0.0467868 2.20539 17.6699 2.20539 39.3479C2.20539 61.0258 20.1716 78.6489 42.2239 78.6489C54.8252 78.6489 65.0871 88.5678 65.0871 100.732C65.0871 112.897 54.8252 122.816 42.2239 122.816C30.8702 122.816 21.4504 114.8 19.7037 104.288C19.4854 103.009 18.3625 102.074 17.0525 102.198L2.26777 103.446C0.86416 103.571 -0.165155 104.85 0.0219935 106.253C2.79802 126.715 20.6707 142.56 42.2551 142.56C53.6399 142.56 63.9954 138.131 71.6373 130.988C72.1052 130.551 72.5419 130.115 72.9785 129.678L97.6821 105.505V175.093C97.6821 176.465 98.7738 177.557 100.146 177.557H114.962C116.334 177.557 117.426 176.465 117.426 175.093V96.9271H117.551C117.551 82.1424 129.965 70.2273 144.906 71.0383C157.975 71.7245 168.705 82.4543 169.391 95.5235C170.14 109.684 159.441 121.599 145.748 122.785C144.469 122.909 143.502 123.939 143.502 125.249V140.096C143.502 141.531 144.719 142.654 146.122 142.56C157.507 141.905 167.769 137.07 175.442 129.553L201.144 104.538C202.672 113.583 206.883 122.254 213.87 129.241C222.791 138.162 234.487 142.591 246.184 142.591C257.881 142.591 269.577 138.131 278.498 129.241L301.58 105.661C303.264 114.301 307.413 122.566 314.119 129.241C323.039 138.162 334.736 142.591 346.433 142.591C358.13 142.591 369.826 138.131 378.747 129.241L404.574 102.105V120.695C404.574 132.516 413.931 142.498 425.753 142.56C432.116 142.56 438.073 139.815 442.159 134.949L470.044 106.004C474.255 126.871 492.752 142.622 514.835 142.622C525.846 142.622 535.92 138.723 543.812 132.204C547.523 138.412 554.292 142.56 562.027 142.56C568.484 142.56 574.473 139.69 578.528 134.7L602.015 108.031C603.949 115.798 607.941 123.159 613.992 129.21C622.913 138.131 634.61 142.56 646.306 142.56C658.003 142.56 669.7 138.1 678.621 129.21L713.586 90.3457L713.087 120.664C713.087 132.485 722.445 142.466 734.266 142.529C740.629 142.529 746.587 139.784 750.673 134.918L778.62 105.91C780.336 114.457 784.484 122.598 791.097 129.21C800.017 138.131 811.714 142.56 823.411 142.56C835.108 142.56 846.804 138.1 855.725 129.21L903.417 78.9297L917.921 95.3051L918.077 95.5235C924.315 103.29 924.658 110.027 919.075 116.609C916.267 119.915 912.462 122.317 908.158 122.722C904.196 123.097 900.391 122.005 897.303 119.697C896.305 118.948 894.901 118.979 894.028 119.884L883.517 130.395C882.487 131.425 882.55 133.078 883.641 134.014C890.035 139.534 898.083 142.529 906.629 142.529C916.049 142.529 924.907 138.848 931.551 132.204L968.076 94.151C969.043 93.1841 969.043 91.6245 968.076 90.6576L967.858 90.6888ZM514.648 122.847C500.331 122.847 488.697 111.213 488.697 96.8959C488.697 82.5791 500.331 70.9447 514.648 70.9447C528.965 70.9447 540.599 82.5791 540.599 96.8959C540.599 111.213 528.965 122.847 514.648 122.847ZM732.644 26.3723C732.644 24.5632 733.268 22.8788 734.547 21.6312C737.167 19.0111 741.44 19.0111 744.06 21.6312C745.339 22.91 746.025 24.5944 746.025 26.3723C746.025 27.8383 745.557 29.2419 744.684 30.396L730.96 48.6117L732.675 26.3411L732.644 26.3723Z" fill="black"/>
</svg>
